<?xml version="1.0" encoding="utf-8"?>
<!-- Generator: Adobe Illustrator 26.0.2, SVG Export Plug-In . SVG Version: 6.00 Build 0)  -->
<svg version="1.1" id="Layer_1" xmlns="http://www.w3.org/2000/svg" xmlns:xlink="http://www.w3.org/1999/xlink" x="0px" y="0px"
	 viewBox="0 0 261.3 129.5" style="enable-background:new 0 0 261.3 129.5;" xml:space="preserve">
<style type="text/css">
	.st0{clip-path:url(#SVGID_00000006689355820117806730000006360382334815372476_);}
	.st1{fill:#F1F1F2;}
	.st2{fill:#55AEDF;}
	.st3{fill:#E43F32;}
	.st4{fill:#939292;fill-opacity:0.2;}
	.st5{fill:#939292;fill-opacity:0.176;}
</style>
<g>
	<g>
		<defs>
			<rect id="SVGID_1_" width="261.3" height="129.5"/>
		</defs>
		<clipPath id="SVGID_00000066513043560579520020000016156747532555645363_">
			<use xlink:href="#SVGID_1_"  style="overflow:visible;"/>
		</clipPath>
		<g style="clip-path:url(#SVGID_00000066513043560579520020000016156747532555645363_);">
			<path class="st1" d="M162.6,3.3c0,0-16.2-5.2-18.4,5c-2.2,10.2-0.3,15.9,3.4,18.5c3.7,2.6,9,3.9,8.7-0.8
				c-0.3-4.7-0.9-11.2,4-10.1c5,1.1,35.8,13.6,35.8,13.6l20.7,22.1L109.6,87.7l-94.2-48c-2.1-1.1-4.5-1.6-7-1.4
				c-3.7,0.3-8.1,4.6-7,12.1c1.9,13,7,18,9.2,18c4.5,0,4.3-3.7,3.4-6.8c-0.9-3.1-0.3-7.3,0.9-6.8c1.3,0.5,33,16.9,33,16.9l27.4,32.3
				l36.1,19.2c0.7,1.1,2.3,1.7,3.8,1.2c2.6-0.7,5.4,0.1,6.8,2.1l0.1,0.2c1.4,1.9,4.3,2.7,6.8,1.8l36.5-12.5
				c8.8-3.3,8.3-7.2,12.9-14.4l8.2-13c1-1.6,2.8-2.9,4.9-3.5l1.6-0.4c2.3-0.6,4.7,0.1,6.1,1.8l5.2,6.4c2.2,2.7,6.4,3.7,9.9,2.4
				l29.2-10.7c2.9-1.1,5-3.2,5.7-5.7l0.2-0.6c0.9-3.2,3.4-5.8,6.9-7.1c1.7-0.7,2.7-2,2.8-3.5l2-31.1L162.6,3.3z"/>
		</g>
	</g>
	<path class="st2" d="M167.8,104l-37.4,14.2c-3.4,1.3-7.2-0.8-7.2-3.9V97.8c0-4.2,3-8,7.7-9.6l37.7-13.3c3.4-1.2,7.1,0.9,7.1,3.9
		v14.9C175.8,98.1,172.7,102.1,167.8,104z"/>
	<path class="st3" d="M243.2,75.2l-29.3,11.4c-3,1.2-6.6-0.7-6.6-3.5v-13c0-5.6,4.1-10.6,10.3-12.7l29-9.6c2.2-0.7,4.7,0.7,4.6,2.7
		l-0.6,15.4C250.4,70,247.5,73.5,243.2,75.2z"/>
	<path class="st4" d="M261,36.6L162.6,3.3c0,0-16.2-5.2-18.4,5c-2.2,10.2-0.3,15.9,3.4,18.5c3.7,2.6,9,3.9,8.7-0.8
		c-0.3-4.7-0.9-11.2,4-10.1c5,1.1,35.8,13.6,35.8,13.6l20.7,22.1L261,36.6z"/>
	<path class="st5" d="M109.7,87.6L15.4,39.7c-2.1-1.1-4.5-1.6-7-1.4c-3.7,0.3-8.1,4.6-7,12.1c1.9,13,7,18,9.2,18
		c4.5,0,4.3-3.7,3.4-6.8c-0.9-3.1-0.3-7.3,0.9-6.8c1.3,0.5,33,16.9,33,16.9l27.4,32.3l36.1,19.2L109.7,87.6z"/>
</g>
</svg>
